<mxfile host="Electron" modified="2025-01-20T08:04:01.402Z" agent="Mozilla/5.0 (Windows NT 10.0; Win64; x64) AppleWebKit/537.36 (KHTML, like Gecko) draw.io/24.2.5 Chrome/120.0.6099.109 Electron/28.1.0 Safari/537.36" etag="DVmFj51i6e_dhA2GiWZX" version="24.2.5" type="device">
  <diagram name="第 1 页" id="InCxBqGaP5o_2Tt15t0i">
    <mxGraphModel dx="2901" dy="1196" grid="1" gridSize="10" guides="1" tooltips="1" connect="1" arrows="1" fold="1" page="1" pageScale="1" pageWidth="827" pageHeight="1169" math="0" shadow="0">
      <root>
        <mxCell id="0" />
        <mxCell id="1" parent="0" />
        <mxCell id="mzmQo962ZIqOOau3sMps-2" value="0" style="rounded=0;whiteSpace=wrap;html=1;" vertex="1" parent="1">
          <mxGeometry x="280" y="411" width="20" height="20" as="geometry" />
        </mxCell>
        <mxCell id="mzmQo962ZIqOOau3sMps-3" value="0" style="rounded=0;whiteSpace=wrap;html=1;" vertex="1" parent="1">
          <mxGeometry x="300" y="411" width="20" height="20" as="geometry" />
        </mxCell>
        <mxCell id="mzmQo962ZIqOOau3sMps-4" value="0" style="rounded=0;whiteSpace=wrap;html=1;" vertex="1" parent="1">
          <mxGeometry x="320" y="411" width="20" height="20" as="geometry" />
        </mxCell>
        <mxCell id="mzmQo962ZIqOOau3sMps-5" value="0" style="rounded=0;whiteSpace=wrap;html=1;" vertex="1" parent="1">
          <mxGeometry x="340" y="411" width="20" height="20" as="geometry" />
        </mxCell>
        <mxCell id="mzmQo962ZIqOOau3sMps-6" value="0" style="rounded=0;whiteSpace=wrap;html=1;" vertex="1" parent="1">
          <mxGeometry x="360" y="411" width="20" height="20" as="geometry" />
        </mxCell>
        <mxCell id="mzmQo962ZIqOOau3sMps-7" value="0" style="rounded=0;whiteSpace=wrap;html=1;" vertex="1" parent="1">
          <mxGeometry x="380" y="411" width="20" height="20" as="geometry" />
        </mxCell>
        <mxCell id="mzmQo962ZIqOOau3sMps-23" value="0" style="rounded=0;whiteSpace=wrap;html=1;" vertex="1" parent="1">
          <mxGeometry x="400" y="411" width="20" height="20" as="geometry" />
        </mxCell>
        <mxCell id="mzmQo962ZIqOOau3sMps-24" value="0" style="rounded=0;whiteSpace=wrap;html=1;" vertex="1" parent="1">
          <mxGeometry x="420" y="411" width="20" height="20" as="geometry" />
        </mxCell>
        <mxCell id="mzmQo962ZIqOOau3sMps-25" value="0" style="rounded=0;whiteSpace=wrap;html=1;" vertex="1" parent="1">
          <mxGeometry x="440" y="411" width="20" height="20" as="geometry" />
        </mxCell>
        <mxCell id="mzmQo962ZIqOOau3sMps-26" value="0" style="rounded=0;whiteSpace=wrap;html=1;" vertex="1" parent="1">
          <mxGeometry x="460" y="411" width="20" height="20" as="geometry" />
        </mxCell>
        <mxCell id="mzmQo962ZIqOOau3sMps-29" value="Insert hash=10, row=0" style="text;html=1;align=center;verticalAlign=middle;resizable=0;points=[];autosize=1;strokeColor=none;fillColor=none;" vertex="1" parent="1">
          <mxGeometry x="-11" y="406" width="140" height="30" as="geometry" />
        </mxCell>
        <mxCell id="mzmQo962ZIqOOau3sMps-32" value="" style="edgeStyle=orthogonalEdgeStyle;rounded=0;orthogonalLoop=1;jettySize=auto;html=1;fillColor=#ffe6cc;strokeColor=#d79b00;" edge="1" parent="1" source="mzmQo962ZIqOOau3sMps-30" target="mzmQo962ZIqOOau3sMps-31">
          <mxGeometry relative="1" as="geometry" />
        </mxCell>
        <mxCell id="mzmQo962ZIqOOau3sMps-30" value="10" style="rounded=1;whiteSpace=wrap;html=1;fillColor=#ffe6cc;strokeColor=#d79b00;" vertex="1" parent="1">
          <mxGeometry x="140" y="411" width="20" height="20" as="geometry" />
        </mxCell>
        <mxCell id="mzmQo962ZIqOOau3sMps-31" value="1" style="rounded=1;whiteSpace=wrap;html=1;fillColor=#ffe6cc;strokeColor=#d79b00;" vertex="1" parent="1">
          <mxGeometry x="201" y="411" width="20" height="20" as="geometry" />
        </mxCell>
        <mxCell id="mzmQo962ZIqOOau3sMps-33" value="0" style="rounded=0;whiteSpace=wrap;html=1;" vertex="1" parent="1">
          <mxGeometry x="280" y="477" width="20" height="20" as="geometry" />
        </mxCell>
        <mxCell id="mzmQo962ZIqOOau3sMps-34" value="0" style="rounded=0;whiteSpace=wrap;html=1;" vertex="1" parent="1">
          <mxGeometry x="300" y="477" width="20" height="20" as="geometry" />
        </mxCell>
        <mxCell id="mzmQo962ZIqOOau3sMps-35" value="0" style="rounded=0;whiteSpace=wrap;html=1;" vertex="1" parent="1">
          <mxGeometry x="320" y="477" width="20" height="20" as="geometry" />
        </mxCell>
        <mxCell id="mzmQo962ZIqOOau3sMps-36" value="0" style="rounded=0;whiteSpace=wrap;html=1;" vertex="1" parent="1">
          <mxGeometry x="340" y="477" width="20" height="20" as="geometry" />
        </mxCell>
        <mxCell id="mzmQo962ZIqOOau3sMps-37" value="0" style="rounded=0;whiteSpace=wrap;html=1;" vertex="1" parent="1">
          <mxGeometry x="360" y="477" width="20" height="20" as="geometry" />
        </mxCell>
        <mxCell id="mzmQo962ZIqOOau3sMps-38" value="0" style="rounded=0;whiteSpace=wrap;html=1;" vertex="1" parent="1">
          <mxGeometry x="380" y="477" width="20" height="20" as="geometry" />
        </mxCell>
        <mxCell id="mzmQo962ZIqOOau3sMps-39" value="0" style="rounded=0;whiteSpace=wrap;html=1;" vertex="1" parent="1">
          <mxGeometry x="400" y="477" width="20" height="20" as="geometry" />
        </mxCell>
        <mxCell id="mzmQo962ZIqOOau3sMps-40" value="0" style="rounded=0;whiteSpace=wrap;html=1;" vertex="1" parent="1">
          <mxGeometry x="420" y="477" width="20" height="20" as="geometry" />
        </mxCell>
        <mxCell id="mzmQo962ZIqOOau3sMps-41" value="0" style="rounded=0;whiteSpace=wrap;html=1;" vertex="1" parent="1">
          <mxGeometry x="440" y="477" width="20" height="20" as="geometry" />
        </mxCell>
        <mxCell id="mzmQo962ZIqOOau3sMps-42" value="0" style="rounded=0;whiteSpace=wrap;html=1;" vertex="1" parent="1">
          <mxGeometry x="460" y="477" width="20" height="20" as="geometry" />
        </mxCell>
        <mxCell id="mzmQo962ZIqOOau3sMps-44" value="Insert hash=20, row=1" style="text;html=1;align=center;verticalAlign=middle;resizable=0;points=[];autosize=1;strokeColor=none;fillColor=none;" vertex="1" parent="1">
          <mxGeometry x="-11" y="471" width="140" height="30" as="geometry" />
        </mxCell>
        <mxCell id="mzmQo962ZIqOOau3sMps-45" value="" style="edgeStyle=orthogonalEdgeStyle;rounded=0;orthogonalLoop=1;jettySize=auto;html=1;fillColor=#ffe6cc;strokeColor=#d79b00;" edge="1" parent="1" source="mzmQo962ZIqOOau3sMps-46" target="mzmQo962ZIqOOau3sMps-47">
          <mxGeometry relative="1" as="geometry" />
        </mxCell>
        <mxCell id="mzmQo962ZIqOOau3sMps-46" value="10" style="rounded=1;whiteSpace=wrap;html=1;fillColor=#ffe6cc;strokeColor=#d79b00;" vertex="1" parent="1">
          <mxGeometry x="140" y="476" width="20" height="20" as="geometry" />
        </mxCell>
        <mxCell id="mzmQo962ZIqOOau3sMps-47" value="1" style="rounded=1;whiteSpace=wrap;html=1;fillColor=#ffe6cc;strokeColor=#d79b00;" vertex="1" parent="1">
          <mxGeometry x="201" y="476" width="20" height="20" as="geometry" />
        </mxCell>
        <mxCell id="mzmQo962ZIqOOau3sMps-48" value="" style="endArrow=none;dashed=1;html=1;dashPattern=1 3;strokeWidth=2;rounded=0;" edge="1" parent="1">
          <mxGeometry width="50" height="50" relative="1" as="geometry">
            <mxPoint x="-6" y="456" as="sourcePoint" />
            <mxPoint x="500" y="456" as="targetPoint" />
          </mxGeometry>
        </mxCell>
        <mxCell id="mzmQo962ZIqOOau3sMps-49" value="" style="edgeStyle=orthogonalEdgeStyle;rounded=0;orthogonalLoop=1;jettySize=auto;html=1;" edge="1" parent="1" source="mzmQo962ZIqOOau3sMps-50" target="mzmQo962ZIqOOau3sMps-51">
          <mxGeometry relative="1" as="geometry" />
        </mxCell>
        <mxCell id="mzmQo962ZIqOOau3sMps-50" value="20" style="rounded=1;whiteSpace=wrap;html=1;" vertex="1" parent="1">
          <mxGeometry x="140" y="504" width="20" height="20" as="geometry" />
        </mxCell>
        <mxCell id="mzmQo962ZIqOOau3sMps-51" value="2" style="rounded=1;whiteSpace=wrap;html=1;" vertex="1" parent="1">
          <mxGeometry x="201" y="504" width="20" height="20" as="geometry" />
        </mxCell>
        <mxCell id="mzmQo962ZIqOOau3sMps-52" value="0" style="rounded=0;whiteSpace=wrap;html=1;" vertex="1" parent="1">
          <mxGeometry x="280" y="568" width="20" height="20" as="geometry" />
        </mxCell>
        <mxCell id="mzmQo962ZIqOOau3sMps-53" value="0" style="rounded=0;whiteSpace=wrap;html=1;" vertex="1" parent="1">
          <mxGeometry x="300" y="568" width="20" height="20" as="geometry" />
        </mxCell>
        <mxCell id="mzmQo962ZIqOOau3sMps-54" value="1" style="rounded=0;whiteSpace=wrap;html=1;fillColor=#dae8fc;strokeColor=#6c8ebf;" vertex="1" parent="1">
          <mxGeometry x="320" y="568" width="20" height="20" as="geometry" />
        </mxCell>
        <mxCell id="mzmQo962ZIqOOau3sMps-55" value="0" style="rounded=0;whiteSpace=wrap;html=1;" vertex="1" parent="1">
          <mxGeometry x="340" y="568" width="20" height="20" as="geometry" />
        </mxCell>
        <mxCell id="mzmQo962ZIqOOau3sMps-56" value="0" style="rounded=0;whiteSpace=wrap;html=1;" vertex="1" parent="1">
          <mxGeometry x="360" y="568" width="20" height="20" as="geometry" />
        </mxCell>
        <mxCell id="mzmQo962ZIqOOau3sMps-57" value="0" style="rounded=0;whiteSpace=wrap;html=1;" vertex="1" parent="1">
          <mxGeometry x="380" y="568" width="20" height="20" as="geometry" />
        </mxCell>
        <mxCell id="mzmQo962ZIqOOau3sMps-58" value="0" style="rounded=0;whiteSpace=wrap;html=1;" vertex="1" parent="1">
          <mxGeometry x="400" y="568" width="20" height="20" as="geometry" />
        </mxCell>
        <mxCell id="mzmQo962ZIqOOau3sMps-59" value="0" style="rounded=0;whiteSpace=wrap;html=1;" vertex="1" parent="1">
          <mxGeometry x="420" y="568" width="20" height="20" as="geometry" />
        </mxCell>
        <mxCell id="mzmQo962ZIqOOau3sMps-60" value="0" style="rounded=0;whiteSpace=wrap;html=1;" vertex="1" parent="1">
          <mxGeometry x="440" y="568" width="20" height="20" as="geometry" />
        </mxCell>
        <mxCell id="mzmQo962ZIqOOau3sMps-61" value="0" style="rounded=0;whiteSpace=wrap;html=1;" vertex="1" parent="1">
          <mxGeometry x="460" y="568" width="20" height="20" as="geometry" />
        </mxCell>
        <mxCell id="mzmQo962ZIqOOau3sMps-63" value="Insert hash=10, row=2" style="text;html=1;align=center;verticalAlign=middle;resizable=0;points=[];autosize=1;strokeColor=none;fillColor=none;" vertex="1" parent="1">
          <mxGeometry x="-11" y="562" width="140" height="30" as="geometry" />
        </mxCell>
        <mxCell id="mzmQo962ZIqOOau3sMps-64" value="" style="edgeStyle=orthogonalEdgeStyle;rounded=0;orthogonalLoop=1;jettySize=auto;html=1;fillColor=#ffe6cc;strokeColor=#d79b00;" edge="1" parent="1" source="mzmQo962ZIqOOau3sMps-65" target="mzmQo962ZIqOOau3sMps-66">
          <mxGeometry relative="1" as="geometry" />
        </mxCell>
        <mxCell id="mzmQo962ZIqOOau3sMps-65" value="10" style="rounded=1;whiteSpace=wrap;html=1;fillColor=#ffe6cc;strokeColor=#d79b00;" vertex="1" parent="1">
          <mxGeometry x="140" y="567" width="20" height="20" as="geometry" />
        </mxCell>
        <mxCell id="mzmQo962ZIqOOau3sMps-66" value="3" style="rounded=1;whiteSpace=wrap;html=1;fillColor=#ffe6cc;strokeColor=#d79b00;" vertex="1" parent="1">
          <mxGeometry x="201" y="567" width="20" height="20" as="geometry" />
        </mxCell>
        <mxCell id="mzmQo962ZIqOOau3sMps-67" value="" style="endArrow=none;dashed=1;html=1;dashPattern=1 3;strokeWidth=2;rounded=0;" edge="1" parent="1">
          <mxGeometry width="50" height="50" relative="1" as="geometry">
            <mxPoint x="-6" y="547" as="sourcePoint" />
            <mxPoint x="500" y="547" as="targetPoint" />
          </mxGeometry>
        </mxCell>
        <mxCell id="mzmQo962ZIqOOau3sMps-68" value="" style="edgeStyle=orthogonalEdgeStyle;rounded=0;orthogonalLoop=1;jettySize=auto;html=1;" edge="1" parent="1" source="mzmQo962ZIqOOau3sMps-69" target="mzmQo962ZIqOOau3sMps-70">
          <mxGeometry relative="1" as="geometry" />
        </mxCell>
        <mxCell id="mzmQo962ZIqOOau3sMps-69" value="20" style="rounded=1;whiteSpace=wrap;html=1;" vertex="1" parent="1">
          <mxGeometry x="140" y="595" width="20" height="20" as="geometry" />
        </mxCell>
        <mxCell id="mzmQo962ZIqOOau3sMps-70" value="2" style="rounded=1;whiteSpace=wrap;html=1;" vertex="1" parent="1">
          <mxGeometry x="201" y="595" width="20" height="20" as="geometry" />
        </mxCell>
        <mxCell id="mzmQo962ZIqOOau3sMps-71" value="0" style="rounded=0;whiteSpace=wrap;html=1;" vertex="1" parent="1">
          <mxGeometry x="280" y="660" width="20" height="20" as="geometry" />
        </mxCell>
        <mxCell id="mzmQo962ZIqOOau3sMps-72" value="0" style="rounded=0;whiteSpace=wrap;html=1;" vertex="1" parent="1">
          <mxGeometry x="300" y="660" width="20" height="20" as="geometry" />
        </mxCell>
        <mxCell id="mzmQo962ZIqOOau3sMps-73" value="1" style="rounded=0;whiteSpace=wrap;html=1;fillColor=#dae8fc;strokeColor=#6c8ebf;" vertex="1" parent="1">
          <mxGeometry x="320" y="660" width="20" height="20" as="geometry" />
        </mxCell>
        <mxCell id="mzmQo962ZIqOOau3sMps-74" value="0" style="rounded=0;whiteSpace=wrap;html=1;" vertex="1" parent="1">
          <mxGeometry x="340" y="660" width="20" height="20" as="geometry" />
        </mxCell>
        <mxCell id="mzmQo962ZIqOOau3sMps-75" value="0" style="rounded=0;whiteSpace=wrap;html=1;" vertex="1" parent="1">
          <mxGeometry x="360" y="660" width="20" height="20" as="geometry" />
        </mxCell>
        <mxCell id="mzmQo962ZIqOOau3sMps-76" value="0" style="rounded=0;whiteSpace=wrap;html=1;" vertex="1" parent="1">
          <mxGeometry x="380" y="660" width="20" height="20" as="geometry" />
        </mxCell>
        <mxCell id="mzmQo962ZIqOOau3sMps-77" value="0" style="rounded=0;whiteSpace=wrap;html=1;" vertex="1" parent="1">
          <mxGeometry x="400" y="660" width="20" height="20" as="geometry" />
        </mxCell>
        <mxCell id="mzmQo962ZIqOOau3sMps-78" value="0" style="rounded=0;whiteSpace=wrap;html=1;" vertex="1" parent="1">
          <mxGeometry x="420" y="660" width="20" height="20" as="geometry" />
        </mxCell>
        <mxCell id="mzmQo962ZIqOOau3sMps-79" value="0" style="rounded=0;whiteSpace=wrap;html=1;" vertex="1" parent="1">
          <mxGeometry x="440" y="660" width="20" height="20" as="geometry" />
        </mxCell>
        <mxCell id="mzmQo962ZIqOOau3sMps-80" value="0" style="rounded=0;whiteSpace=wrap;html=1;" vertex="1" parent="1">
          <mxGeometry x="460" y="660" width="20" height="20" as="geometry" />
        </mxCell>
        <mxCell id="mzmQo962ZIqOOau3sMps-82" value="Insert hash=30, row=3" style="text;html=1;align=center;verticalAlign=middle;resizable=0;points=[];autosize=1;strokeColor=none;fillColor=none;" vertex="1" parent="1">
          <mxGeometry x="-11" y="654" width="140" height="30" as="geometry" />
        </mxCell>
        <mxCell id="mzmQo962ZIqOOau3sMps-83" value="" style="edgeStyle=orthogonalEdgeStyle;rounded=0;orthogonalLoop=1;jettySize=auto;html=1;fillColor=#ffe6cc;strokeColor=#d79b00;" edge="1" parent="1" source="mzmQo962ZIqOOau3sMps-84" target="mzmQo962ZIqOOau3sMps-85">
          <mxGeometry relative="1" as="geometry" />
        </mxCell>
        <mxCell id="mzmQo962ZIqOOau3sMps-84" value="10" style="rounded=1;whiteSpace=wrap;html=1;fillColor=#ffe6cc;strokeColor=#d79b00;" vertex="1" parent="1">
          <mxGeometry x="140" y="659" width="20" height="20" as="geometry" />
        </mxCell>
        <mxCell id="mzmQo962ZIqOOau3sMps-85" value="3" style="rounded=1;whiteSpace=wrap;html=1;fillColor=#ffe6cc;strokeColor=#d79b00;" vertex="1" parent="1">
          <mxGeometry x="201" y="659" width="20" height="20" as="geometry" />
        </mxCell>
        <mxCell id="mzmQo962ZIqOOau3sMps-86" value="" style="endArrow=none;dashed=1;html=1;dashPattern=1 3;strokeWidth=2;rounded=0;" edge="1" parent="1">
          <mxGeometry width="50" height="50" relative="1" as="geometry">
            <mxPoint x="-6" y="639" as="sourcePoint" />
            <mxPoint x="500" y="639" as="targetPoint" />
          </mxGeometry>
        </mxCell>
        <mxCell id="mzmQo962ZIqOOau3sMps-87" value="" style="edgeStyle=orthogonalEdgeStyle;rounded=0;orthogonalLoop=1;jettySize=auto;html=1;" edge="1" parent="1" source="mzmQo962ZIqOOau3sMps-88" target="mzmQo962ZIqOOau3sMps-89">
          <mxGeometry relative="1" as="geometry" />
        </mxCell>
        <mxCell id="mzmQo962ZIqOOau3sMps-88" value="20" style="rounded=1;whiteSpace=wrap;html=1;" vertex="1" parent="1">
          <mxGeometry x="140" y="687" width="20" height="20" as="geometry" />
        </mxCell>
        <mxCell id="mzmQo962ZIqOOau3sMps-89" value="2" style="rounded=1;whiteSpace=wrap;html=1;" vertex="1" parent="1">
          <mxGeometry x="201" y="687" width="20" height="20" as="geometry" />
        </mxCell>
        <mxCell id="mzmQo962ZIqOOau3sMps-90" value="" style="edgeStyle=orthogonalEdgeStyle;rounded=0;orthogonalLoop=1;jettySize=auto;html=1;" edge="1" parent="1" source="mzmQo962ZIqOOau3sMps-91" target="mzmQo962ZIqOOau3sMps-92">
          <mxGeometry relative="1" as="geometry" />
        </mxCell>
        <mxCell id="mzmQo962ZIqOOau3sMps-91" value="30" style="rounded=1;whiteSpace=wrap;html=1;" vertex="1" parent="1">
          <mxGeometry x="140" y="715" width="20" height="20" as="geometry" />
        </mxCell>
        <mxCell id="mzmQo962ZIqOOau3sMps-92" value="4" style="rounded=1;whiteSpace=wrap;html=1;" vertex="1" parent="1">
          <mxGeometry x="201" y="715" width="20" height="20" as="geometry" />
        </mxCell>
        <mxCell id="mzmQo962ZIqOOau3sMps-93" value="0" style="rounded=0;whiteSpace=wrap;html=1;" vertex="1" parent="1">
          <mxGeometry x="280" y="779" width="20" height="20" as="geometry" />
        </mxCell>
        <mxCell id="mzmQo962ZIqOOau3sMps-94" value="0" style="rounded=0;whiteSpace=wrap;html=1;" vertex="1" parent="1">
          <mxGeometry x="300" y="779" width="20" height="20" as="geometry" />
        </mxCell>
        <mxCell id="mzmQo962ZIqOOau3sMps-95" value="1" style="rounded=0;whiteSpace=wrap;html=1;fillColor=#dae8fc;strokeColor=#6c8ebf;" vertex="1" parent="1">
          <mxGeometry x="320" y="779" width="20" height="20" as="geometry" />
        </mxCell>
        <mxCell id="mzmQo962ZIqOOau3sMps-96" value="0" style="rounded=0;whiteSpace=wrap;html=1;" vertex="1" parent="1">
          <mxGeometry x="340" y="779" width="20" height="20" as="geometry" />
        </mxCell>
        <mxCell id="mzmQo962ZIqOOau3sMps-97" value="3" style="rounded=0;whiteSpace=wrap;html=1;fillColor=#e1d5e7;strokeColor=#9673a6;" vertex="1" parent="1">
          <mxGeometry x="360" y="779" width="20" height="20" as="geometry" />
        </mxCell>
        <mxCell id="mzmQo962ZIqOOau3sMps-98" value="0" style="rounded=0;whiteSpace=wrap;html=1;" vertex="1" parent="1">
          <mxGeometry x="380" y="779" width="20" height="20" as="geometry" />
        </mxCell>
        <mxCell id="mzmQo962ZIqOOau3sMps-99" value="0" style="rounded=0;whiteSpace=wrap;html=1;" vertex="1" parent="1">
          <mxGeometry x="400" y="779" width="20" height="20" as="geometry" />
        </mxCell>
        <mxCell id="mzmQo962ZIqOOau3sMps-100" value="0" style="rounded=0;whiteSpace=wrap;html=1;" vertex="1" parent="1">
          <mxGeometry x="420" y="779" width="20" height="20" as="geometry" />
        </mxCell>
        <mxCell id="mzmQo962ZIqOOau3sMps-101" value="0" style="rounded=0;whiteSpace=wrap;html=1;" vertex="1" parent="1">
          <mxGeometry x="440" y="779" width="20" height="20" as="geometry" />
        </mxCell>
        <mxCell id="mzmQo962ZIqOOau3sMps-102" value="0" style="rounded=0;whiteSpace=wrap;html=1;" vertex="1" parent="1">
          <mxGeometry x="460" y="779" width="20" height="20" as="geometry" />
        </mxCell>
        <mxCell id="mzmQo962ZIqOOau3sMps-104" value="Insert hash=10, row=4" style="text;html=1;align=center;verticalAlign=middle;resizable=0;points=[];autosize=1;strokeColor=none;fillColor=none;" vertex="1" parent="1">
          <mxGeometry x="-11" y="773" width="140" height="30" as="geometry" />
        </mxCell>
        <mxCell id="mzmQo962ZIqOOau3sMps-105" value="" style="edgeStyle=orthogonalEdgeStyle;rounded=0;orthogonalLoop=1;jettySize=auto;html=1;fillColor=#ffe6cc;strokeColor=#d79b00;" edge="1" parent="1" source="mzmQo962ZIqOOau3sMps-106" target="mzmQo962ZIqOOau3sMps-107">
          <mxGeometry relative="1" as="geometry" />
        </mxCell>
        <mxCell id="mzmQo962ZIqOOau3sMps-106" value="10" style="rounded=1;whiteSpace=wrap;html=1;fillColor=#ffe6cc;strokeColor=#d79b00;" vertex="1" parent="1">
          <mxGeometry x="140" y="778" width="20" height="20" as="geometry" />
        </mxCell>
        <mxCell id="mzmQo962ZIqOOau3sMps-107" value="5" style="rounded=1;whiteSpace=wrap;html=1;fillColor=#ffe6cc;strokeColor=#d79b00;" vertex="1" parent="1">
          <mxGeometry x="201" y="778" width="20" height="20" as="geometry" />
        </mxCell>
        <mxCell id="mzmQo962ZIqOOau3sMps-108" value="" style="endArrow=none;dashed=1;html=1;dashPattern=1 3;strokeWidth=2;rounded=0;" edge="1" parent="1">
          <mxGeometry width="50" height="50" relative="1" as="geometry">
            <mxPoint x="-6" y="758" as="sourcePoint" />
            <mxPoint x="500" y="758" as="targetPoint" />
          </mxGeometry>
        </mxCell>
        <mxCell id="mzmQo962ZIqOOau3sMps-109" value="" style="edgeStyle=orthogonalEdgeStyle;rounded=0;orthogonalLoop=1;jettySize=auto;html=1;" edge="1" parent="1" source="mzmQo962ZIqOOau3sMps-110" target="mzmQo962ZIqOOau3sMps-111">
          <mxGeometry relative="1" as="geometry" />
        </mxCell>
        <mxCell id="mzmQo962ZIqOOau3sMps-110" value="20" style="rounded=1;whiteSpace=wrap;html=1;" vertex="1" parent="1">
          <mxGeometry x="140" y="806" width="20" height="20" as="geometry" />
        </mxCell>
        <mxCell id="mzmQo962ZIqOOau3sMps-111" value="2" style="rounded=1;whiteSpace=wrap;html=1;" vertex="1" parent="1">
          <mxGeometry x="201" y="806" width="20" height="20" as="geometry" />
        </mxCell>
        <mxCell id="mzmQo962ZIqOOau3sMps-112" value="" style="edgeStyle=orthogonalEdgeStyle;rounded=0;orthogonalLoop=1;jettySize=auto;html=1;" edge="1" parent="1" source="mzmQo962ZIqOOau3sMps-113" target="mzmQo962ZIqOOau3sMps-114">
          <mxGeometry relative="1" as="geometry" />
        </mxCell>
        <mxCell id="mzmQo962ZIqOOau3sMps-113" value="30" style="rounded=1;whiteSpace=wrap;html=1;" vertex="1" parent="1">
          <mxGeometry x="140" y="834" width="20" height="20" as="geometry" />
        </mxCell>
        <mxCell id="mzmQo962ZIqOOau3sMps-114" value="4" style="rounded=1;whiteSpace=wrap;html=1;" vertex="1" parent="1">
          <mxGeometry x="201" y="834" width="20" height="20" as="geometry" />
        </mxCell>
        <mxCell id="mzmQo962ZIqOOau3sMps-116" value="&lt;b&gt;&lt;font style=&quot;font-size: 28px;&quot;&gt;...&lt;/font&gt;&lt;/b&gt;" style="text;html=1;align=center;verticalAlign=middle;resizable=0;points=[];autosize=1;strokeColor=none;fillColor=none;" vertex="1" parent="1">
          <mxGeometry x="221" y="859" width="50" height="50" as="geometry" />
        </mxCell>
      </root>
    </mxGraphModel>
  </diagram>
</mxfile>
